<svg xmlns="http://www.w3.org/2000/svg" xmlns:xlink="http://www.w3.org/1999/xlink" width="500" zoomAndPan="magnify" viewBox="0 0 375 374.999991" height="500" preserveAspectRatio="xMidYMid meet" version="1.0"><defs><clipPath id="fd09ed35e8"><path d="M 121.78125 102.351562 L 253.03125 102.351562 L 253.03125 252.351562 L 121.78125 252.351562 Z M 121.78125 102.351562 " clip-rule="nonzero"/></clipPath><clipPath id="e866f1e28d"><path d="M 167 125 L 188 125 L 188 252.351562 L 167 252.351562 Z M 167 125 " clip-rule="nonzero"/></clipPath><clipPath id="43ed81e7d7"><path d="M 50.667969 50.667969 L 324.417969 50.667969 L 324.417969 324.417969 L 50.667969 324.417969 Z M 50.667969 50.667969 " clip-rule="nonzero"/></clipPath><clipPath id="a91cc1d01c"><path d="M 107.007812 107.007812 L 322.070312 107.007812 L 322.070312 316.597656 L 107.007812 316.597656 Z M 107.007812 107.007812 " clip-rule="nonzero"/></clipPath><clipPath id="3ff9bf9ff9"><path d="M 324.324219 187.496094 C 324.324219 263.0625 263.0625 324.324219 187.496094 324.324219 C 111.925781 324.324219 50.667969 263.0625 50.667969 187.496094 C 50.667969 111.925781 111.925781 50.667969 187.496094 50.667969 C 263.0625 50.667969 324.324219 111.925781 324.324219 187.496094 " clip-rule="nonzero"/></clipPath></defs><rect x="-37.5" width="450" fill="#ffffff" y="-37.499999" height="449.999989" fill-opacity="1"/><rect x="-37.5" width="450" fill="#ffffff" y="-37.499999" height="449.999989" fill-opacity="1"/><path fill="#000000" d="M 186.742188 226.601562 C 189.863281 228.503906 193.089844 230.28125 196.449219 231.820312 C 200.203125 233.542969 204.164062 235.03125 208.34375 235.875 C 208.730469 235.957031 209.117188 236.027344 209.507812 236.09375 C 209.609375 236.109375 209.710938 236.125 209.8125 236.140625 L 209.8125 248.5625 C 209.8125 249.722656 210.753906 250.664062 211.914062 250.664062 C 213.070312 250.664062 214.011719 249.722656 214.011719 248.5625 L 214.011719 236.566406 C 214.390625 236.582031 214.769531 236.59375 215.152344 236.597656 C 217.59375 236.59375 220.09375 236.285156 222.460938 235.445312 C 224.824219 234.609375 227.0625 233.214844 228.824219 231.105469 C 229.957031 229.753906 230.832031 228.277344 231.539062 226.757812 C 232.242188 225.238281 232.777344 223.675781 233.234375 222.125 C 233.558594 221.011719 232.921875 219.84375 231.808594 219.515625 C 230.695312 219.191406 229.527344 219.828125 229.203125 220.941406 C 228.789062 222.367188 228.3125 223.730469 227.730469 224.988281 C 227.148438 226.246094 226.457031 227.390625 225.609375 228.402344 C 224.375 229.871094 222.84375 230.84375 221.054688 231.484375 C 219.273438 232.121094 217.238281 232.394531 215.152344 232.390625 C 213.496094 232.390625 211.8125 232.222656 210.210938 231.949219 C 209.863281 231.890625 209.519531 231.824219 209.171875 231.753906 C 205.433594 231 201.769531 229.636719 198.199219 228 C 195.023438 226.542969 191.941406 224.847656 188.925781 223.011719 C 187.933594 222.410156 186.644531 222.722656 186.039062 223.714844 C 185.4375 224.707031 185.753906 226 186.742188 226.601562 Z M 186.742188 226.601562 " fill-opacity="1" fill-rule="nonzero"/><g clip-path="url(#fd09ed35e8)"><path fill="#000000" d="M 149.515625 215.152344 C 152.03125 216.964844 153.96875 219.304688 155.449219 222.015625 C 156.925781 224.71875 157.933594 227.792969 158.542969 230.996094 C 159.226562 234.558594 159.433594 238.234375 159.433594 241.980469 C 159.433594 244.652344 159.328125 247.359375 159.21875 250.082031 C 159.171875 251.242188 160.074219 252.21875 161.234375 252.265625 C 162.390625 252.3125 163.367188 251.410156 163.414062 250.25 C 163.523438 247.527344 163.632812 244.761719 163.632812 241.980469 C 163.632812 238.082031 163.417969 234.136719 162.667969 230.207031 C 161.988281 226.660156 160.863281 223.171875 159.132812 219.996094 C 157.402344 216.824219 155.050781 213.960938 151.96875 211.742188 C 146.667969 207.921875 141.953125 203.957031 138.03125 198.914062 C 130.257812 188.929688 125.992188 176.453125 125.996094 163.789062 C 125.996094 147.992188 132.382812 133.707031 142.722656 123.351562 C 153.0625 113 167.328125 106.601562 183.101562 106.601562 C 199.433594 106.597656 215.265625 113.785156 226.035156 126.078125 C 230.664062 131.359375 233.957031 137.265625 236.226562 143.617188 C 238.492188 149.964844 239.730469 156.765625 240.214844 163.789062 C 240.214844 163.816406 240.222656 163.839844 240.226562 163.863281 L 240.21875 163.863281 C 240.222656 163.871094 240.226562 163.9375 240.234375 164.019531 C 240.292969 164.671875 240.484375 166.769531 240.945312 169.140625 C 241.179688 170.332031 241.476562 171.59375 241.875 172.800781 C 242.277344 174.011719 242.765625 175.171875 243.472656 176.195312 C 244.050781 177.023438 244.695312 177.726562 245.320312 178.371094 C 246.257812 179.335938 247.152344 180.179688 247.769531 180.96875 C 248.082031 181.359375 248.328125 181.734375 248.5 182.089844 C 248.671875 182.445312 248.777344 182.78125 248.824219 183.148438 C 248.84375 183.300781 248.851562 183.453125 248.851562 183.597656 C 248.851562 184.09375 248.75 184.5625 248.550781 185.046875 C 248.253906 185.769531 247.710938 186.519531 247.011719 187.21875 C 246.316406 187.921875 245.472656 188.566406 244.648438 189.109375 C 242.972656 190.210938 241.210938 191.601562 239.738281 193.328125 C 239.003906 194.195312 238.339844 195.144531 237.816406 196.195312 C 237.292969 197.246094 236.90625 198.394531 236.742188 199.625 C 236.691406 200.011719 236.675781 200.386719 236.671875 200.75 C 236.675781 201.554688 236.757812 202.324219 236.828125 203.046875 C 236.898438 203.765625 236.960938 204.441406 236.957031 205.003906 C 236.960938 205.40625 236.925781 205.742188 236.871094 205.988281 C 236.816406 206.234375 236.746094 206.378906 236.683594 206.46875 C 236.65625 206.511719 236.621094 206.546875 236.542969 206.601562 C 236.425781 206.683594 236.203125 206.785156 235.886719 206.863281 C 235.570312 206.941406 235.175781 206.992188 234.765625 207.019531 C 234.332031 207.046875 233.902344 207.058594 233.46875 207.058594 C 229.476562 207.0625 225.460938 205.878906 222.121094 203.699219 C 221.148438 203.066406 219.847656 203.34375 219.214844 204.316406 C 218.585938 205.289062 218.859375 206.59375 219.832031 207.226562 C 223.875 209.855469 228.65625 211.261719 233.46875 211.265625 C 233.988281 211.265625 234.511719 211.246094 235.03125 211.214844 C 235.789062 211.164062 236.652344 211.0625 237.550781 210.75 C 238.003906 210.59375 238.464844 210.378906 238.910156 210.074219 C 239.355469 209.769531 239.785156 209.371094 240.128906 208.875 C 240.570312 208.238281 240.824219 207.550781 240.96875 206.898438 C 241.117188 206.242188 241.15625 205.609375 241.15625 205.003906 C 241.15625 204.160156 241.074219 203.363281 241.003906 202.632812 C 240.933594 201.910156 240.871094 201.25 240.871094 200.75 C 240.871094 200.523438 240.882812 200.332031 240.902344 200.183594 C 241 199.46875 241.226562 198.769531 241.570312 198.078125 C 242.085938 197.042969 242.878906 196.027344 243.828125 195.101562 C 244.773438 194.171875 245.871094 193.332031 246.949219 192.625 C 248.285156 191.746094 249.734375 190.617188 250.921875 189.148438 C 251.515625 188.414062 252.042969 187.589844 252.425781 186.660156 C 252.8125 185.734375 253.050781 184.695312 253.050781 183.597656 C 253.050781 183.277344 253.03125 182.949219 252.988281 182.621094 C 252.84375 181.46875 252.429688 180.441406 251.90625 179.570312 C 251.117188 178.261719 250.121094 177.257812 249.210938 176.335938 C 248.296875 175.417969 247.464844 174.585938 246.917969 173.789062 C 246.53125 173.246094 246.101562 172.285156 245.765625 171.1875 C 245.253906 169.535156 244.902344 167.578125 244.691406 166.0625 C 244.585938 165.304688 244.515625 164.652344 244.46875 164.195312 C 244.445312 163.964844 244.429688 163.785156 244.417969 163.660156 C 244.414062 163.597656 244.410156 163.546875 244.40625 163.507812 L 244.398438 163.445312 L 244.398438 163.433594 C 243.886719 156.128906 242.59375 148.972656 240.179688 142.203125 C 237.757812 135.414062 234.195312 129.015625 229.191406 123.304688 C 217.605469 110.09375 200.660156 102.398438 183.101562 102.398438 C 166.179688 102.394531 150.839844 109.273438 139.753906 120.378906 C 128.660156 131.480469 121.796875 146.84375 121.796875 163.789062 C 121.796875 177.394531 126.367188 190.761719 134.71875 201.496094 C 138.996094 206.992188 144.0625 211.222656 149.515625 215.152344 Z M 240.242188 163.972656 L 240.234375 163.972656 Z M 240.558594 164.796875 L 240.554688 164.796875 Z M 243.871094 165.042969 Z M 244.316406 164.222656 L 244.324219 164.222656 Z M 244.378906 163.910156 L 244.390625 163.910156 Z M 244.378906 163.910156 " fill-opacity="1" fill-rule="nonzero"/></g><path fill="#000000" d="M 164.582031 207.496094 C 165.742188 207.496094 166.679688 206.554688 166.679688 205.394531 L 166.679688 181.738281 C 166.679688 181.328125 166.5625 180.933594 166.339844 180.589844 L 160.5625 171.714844 C 160.601562 171.675781 160.644531 171.640625 160.683594 171.601562 C 162.476562 169.8125 163.59375 167.3125 163.589844 164.574219 C 163.59375 161.839844 162.476562 159.339844 160.683594 157.546875 C 158.894531 155.753906 156.402344 154.636719 153.667969 154.636719 C 150.933594 154.636719 148.441406 155.753906 146.648438 157.546875 C 144.859375 159.339844 143.742188 161.839844 143.742188 164.574219 C 143.742188 167.3125 144.859375 169.8125 146.648438 171.601562 C 148.4375 173.398438 150.933594 174.515625 153.667969 174.515625 C 154.832031 174.515625 155.949219 174.300781 156.992188 173.929688 L 162.484375 182.363281 L 162.484375 205.394531 C 162.484375 206.554688 163.421875 207.496094 164.582031 207.496094 Z M 153.667969 158.84375 C 155.253906 158.84375 156.671875 159.480469 157.714844 160.523438 C 158.753906 161.566406 159.390625 162.988281 159.390625 164.578125 C 159.390625 166.167969 158.753906 167.585938 157.714844 168.628906 C 156.671875 169.671875 155.253906 170.308594 153.667969 170.308594 C 152.078125 170.308594 150.660156 169.671875 149.617188 168.628906 C 148.578125 167.585938 147.941406 166.167969 147.941406 164.578125 C 147.941406 162.988281 148.578125 161.566406 149.617188 160.523438 C 150.660156 159.480469 152.078125 158.84375 153.667969 158.84375 Z M 153.667969 158.84375 " fill-opacity="1" fill-rule="nonzero"/><path fill="#000000" d="M 187.480469 181.738281 L 187.480469 205.394531 C 187.480469 206.554688 188.417969 207.496094 189.578125 207.496094 C 190.738281 207.496094 191.675781 206.554688 191.675781 205.394531 L 191.675781 182.363281 L 197.164062 173.929688 C 198.207031 174.300781 199.324219 174.515625 200.492188 174.515625 C 203.226562 174.515625 205.71875 173.398438 207.507812 171.601562 C 209.300781 169.8125 210.417969 167.3125 210.414062 164.574219 C 210.417969 161.839844 209.300781 159.339844 207.507812 157.546875 C 205.71875 155.753906 203.226562 154.636719 200.492188 154.636719 C 197.757812 154.636719 195.265625 155.753906 193.476562 157.546875 C 191.683594 159.339844 190.566406 161.839844 190.570312 164.574219 C 190.566406 167.3125 191.683594 169.8125 193.476562 171.601562 C 193.511719 171.640625 193.558594 171.675781 193.597656 171.714844 L 187.820312 180.589844 C 187.597656 180.933594 187.480469 181.328125 187.480469 181.738281 Z M 200.492188 158.84375 C 202.082031 158.84375 203.5 159.480469 204.539062 160.523438 C 205.582031 161.566406 206.214844 162.988281 206.21875 164.578125 C 206.214844 166.167969 205.582031 167.585938 204.539062 168.628906 C 203.5 169.671875 202.082031 170.308594 200.492188 170.308594 C 198.90625 170.308594 197.488281 169.671875 196.445312 168.628906 C 195.40625 167.585938 194.769531 166.167969 194.765625 164.578125 C 194.769531 162.988281 195.40625 161.566406 196.445312 160.523438 C 197.488281 159.480469 198.90625 158.84375 200.492188 158.84375 Z M 200.492188 158.84375 " fill-opacity="1" fill-rule="nonzero"/><g clip-path="url(#e866f1e28d)"><path fill="#000000" d="M 177.089844 252.269531 C 178.25 252.269531 179.191406 251.328125 179.191406 250.164062 L 179.191406 144.832031 C 181.085938 144.421875 182.789062 143.472656 184.109375 142.148438 C 185.902344 140.359375 187.015625 137.859375 187.015625 135.121094 C 187.015625 132.386719 185.902344 129.886719 184.109375 128.097656 C 182.320312 126.300781 179.824219 125.183594 177.089844 125.183594 C 174.355469 125.183594 171.863281 126.300781 170.074219 128.097656 C 168.28125 129.886719 167.164062 132.386719 167.167969 135.121094 C 167.164062 137.859375 168.28125 140.359375 170.074219 142.148438 C 171.390625 143.472656 173.09375 144.421875 174.992188 144.832031 L 174.992188 250.164062 C 174.992188 251.328125 175.929688 252.269531 177.089844 252.269531 Z M 177.089844 129.390625 C 178.679688 129.390625 180.097656 130.027344 181.140625 131.070312 C 182.179688 132.113281 182.816406 133.53125 182.816406 135.121094 C 182.816406 136.714844 182.179688 138.132812 181.140625 139.175781 C 180.097656 140.21875 178.679688 140.855469 177.089844 140.855469 C 175.503906 140.855469 174.085938 140.21875 173.042969 139.175781 C 172.003906 138.132812 171.367188 136.714844 171.367188 135.121094 C 171.367188 133.53125 172.003906 132.113281 173.042969 131.070312 C 174.085938 130.027344 175.503906 129.390625 177.089844 129.390625 Z M 177.089844 129.390625 " fill-opacity="1" fill-rule="nonzero"/></g><g clip-path="url(#43ed81e7d7)"><path fill="#7cb3b2" d="M 324.324219 187.496094 C 324.324219 263.0625 263.0625 324.324219 187.496094 324.324219 C 111.925781 324.324219 50.667969 263.0625 50.667969 187.496094 C 50.667969 111.925781 111.925781 50.667969 187.496094 50.667969 C 263.0625 50.667969 324.324219 111.925781 324.324219 187.496094 " fill-opacity="1" fill-rule="nonzero"/></g><g clip-path="url(#a91cc1d01c)"><g clip-path="url(#3ff9bf9ff9)"><path fill="#7cb3b2" d="M 233.117188 316.535156 L 168.242188 261.996094 L 168.183594 261.949219 C 167.957031 261.753906 167.734375 261.558594 167.511719 261.359375 C 167.441406 261.292969 167.371094 261.226562 167.300781 261.160156 C 167.113281 260.988281 166.929688 260.816406 166.75 260.636719 C 166.710938 260.597656 166.667969 260.558594 166.628906 260.515625 L 166.585938 260.472656 C 166.285156 260.171875 165.996094 259.859375 165.707031 259.542969 C 165.660156 259.492188 165.613281 259.4375 165.5625 259.382812 C 165.285156 259.066406 165.011719 258.742188 164.75 258.414062 C 164.703125 258.355469 164.660156 258.300781 164.617188 258.242188 C 164.351562 257.902344 164.089844 257.558594 163.84375 257.207031 C 163.8125 257.164062 163.785156 257.117188 163.753906 257.074219 C 163.496094 256.703125 163.242188 256.320312 163.003906 255.929688 L 150.460938 235.539062 C 149.589844 234.113281 149.128906 232.480469 149.128906 230.816406 L 149.128906 222.453125 L 114.34375 191.863281 C 114.300781 191.832031 114.265625 191.792969 114.226562 191.757812 C 114.03125 191.585938 113.84375 191.40625 113.65625 191.226562 C 113.566406 191.140625 113.476562 191.058594 113.386719 190.96875 C 113.121094 190.703125 112.855469 190.429688 112.601562 190.148438 L 112.59375 190.140625 C 112.335938 189.855469 112.089844 189.5625 111.847656 189.265625 C 111.769531 189.167969 111.695312 189.070312 111.621094 188.972656 C 111.460938 188.765625 111.300781 188.558594 111.148438 188.347656 C 111.0625 188.226562 110.980469 188.105469 110.894531 187.988281 C 110.757812 187.789062 110.621094 187.585938 110.488281 187.382812 C 110.40625 187.253906 110.328125 187.125 110.25 186.996094 C 110.121094 186.789062 109.996094 186.582031 109.875 186.367188 C 109.804688 186.238281 109.730469 186.113281 109.660156 185.984375 C 109.53125 185.75 109.414062 185.515625 109.296875 185.277344 C 109.238281 185.164062 109.179688 185.050781 109.125 184.9375 C 108.957031 184.582031 108.796875 184.226562 108.644531 183.859375 C 108.515625 183.542969 108.394531 183.222656 108.277344 182.902344 C 108.242188 182.800781 108.210938 182.699219 108.175781 182.597656 C 108.101562 182.375 108.027344 182.15625 107.960938 181.933594 C 107.921875 181.816406 107.890625 181.699219 107.855469 181.582031 C 107.792969 181.367188 107.738281 181.152344 107.679688 180.9375 C 107.652344 180.824219 107.625 180.710938 107.597656 180.597656 C 107.539062 180.351562 107.484375 180.105469 107.4375 179.859375 C 107.421875 179.78125 107.402344 179.703125 107.386719 179.625 C 107.324219 179.300781 107.273438 178.976562 107.226562 178.648438 C 107.214844 178.570312 107.207031 178.492188 107.199219 178.417969 C 107.164062 178.167969 107.136719 177.921875 107.113281 177.671875 C 107.101562 177.558594 107.09375 177.445312 107.085938 177.332031 C 107.066406 177.117188 107.054688 176.898438 107.042969 176.679688 C 107.039062 176.5625 107.03125 176.445312 107.027344 176.328125 C 107.019531 176.105469 107.019531 175.882812 107.019531 175.660156 C 107.019531 175.554688 107.015625 175.453125 107.015625 175.351562 C 107.023438 175.03125 107.03125 174.714844 107.050781 174.398438 L 107.050781 174.382812 C 107.070312 174.0625 107.097656 173.738281 107.128906 173.421875 C 107.140625 173.320312 107.15625 173.21875 107.164062 173.121094 C 107.191406 172.898438 107.21875 172.679688 107.253906 172.457031 C 107.269531 172.34375 107.289062 172.230469 107.308594 172.117188 C 107.34375 171.902344 107.378906 171.695312 107.421875 171.484375 C 107.441406 171.375 107.464844 171.265625 107.488281 171.15625 C 107.535156 170.917969 107.59375 170.683594 107.648438 170.449219 C 107.667969 170.371094 107.683594 170.296875 107.703125 170.222656 C 107.785156 169.910156 107.871094 169.605469 107.964844 169.300781 C 107.984375 169.226562 108.011719 169.15625 108.035156 169.085938 C 108.109375 168.851562 108.183594 168.621094 108.265625 168.390625 C 108.304688 168.285156 108.339844 168.179688 108.378906 168.078125 C 108.453125 167.878906 108.53125 167.679688 108.609375 167.480469 C 108.65625 167.375 108.699219 167.269531 108.742188 167.164062 C 108.828125 166.960938 108.917969 166.757812 109.011719 166.558594 C 109.050781 166.46875 109.09375 166.375 109.136719 166.28125 C 109.269531 166.003906 109.410156 165.722656 109.554688 165.449219 L 109.566406 165.425781 C 109.714844 165.144531 109.875 164.867188 110.035156 164.59375 C 110.085938 164.507812 110.140625 164.421875 110.191406 164.339844 C 110.304688 164.148438 110.421875 163.960938 110.546875 163.773438 C 110.609375 163.675781 110.671875 163.582031 110.734375 163.484375 C 110.855469 163.308594 110.976562 163.132812 111.101562 162.960938 C 111.167969 162.871094 111.230469 162.777344 111.296875 162.6875 C 111.441406 162.492188 111.589844 162.300781 111.742188 162.113281 C 111.789062 162.050781 111.839844 161.988281 111.890625 161.921875 C 112.089844 161.675781 112.300781 161.429688 112.511719 161.1875 C 112.5625 161.132812 112.613281 161.082031 112.664062 161.027344 C 112.832031 160.84375 113 160.660156 113.175781 160.480469 C 113.253906 160.402344 113.332031 160.324219 113.410156 160.242188 C 113.566406 160.089844 113.71875 159.941406 113.878906 159.792969 C 113.964844 159.710938 114.050781 159.632812 114.136719 159.554688 C 114.304688 159.402344 114.472656 159.257812 114.640625 159.109375 C 114.722656 159.042969 114.800781 158.972656 114.878906 158.90625 C 114.910156 158.882812 114.9375 158.859375 114.96875 158.832031 C 115.179688 158.660156 115.398438 158.492188 115.617188 158.324219 C 115.664062 158.289062 115.707031 158.257812 115.753906 158.222656 C 115.96875 158.066406 116.183594 157.910156 116.40625 157.757812 C 116.484375 157.707031 116.5625 157.652344 116.640625 157.601562 C 116.859375 157.453125 117.085938 157.308594 117.3125 157.167969 C 117.363281 157.136719 117.414062 157.105469 117.464844 157.074219 C 117.738281 156.910156 118.019531 156.75 118.304688 156.59375 C 118.378906 156.554688 118.453125 156.515625 118.523438 156.476562 C 118.75 156.359375 118.976562 156.246094 119.203125 156.132812 C 119.289062 156.09375 119.375 156.050781 119.460938 156.011719 C 119.757812 155.871094 120.058594 155.734375 120.367188 155.609375 C 120.695312 155.472656 121.023438 155.34375 121.355469 155.226562 C 121.46875 155.1875 121.582031 155.152344 121.695312 155.113281 C 121.914062 155.039062 122.132812 154.960938 122.355469 154.894531 C 122.488281 154.855469 122.625 154.820312 122.757812 154.78125 C 122.960938 154.726562 123.160156 154.664062 123.363281 154.613281 C 123.511719 154.578125 123.65625 154.546875 123.800781 154.515625 C 123.980469 154.472656 124.160156 154.425781 124.339844 154.390625 L 113.804688 144.355469 C 113.660156 144.21875 113.515625 144.074219 113.375 143.929688 C 113.335938 143.890625 113.292969 143.851562 113.253906 143.8125 C 113.035156 143.585938 112.820312 143.355469 112.609375 143.117188 C 112.550781 143.054688 112.496094 142.988281 112.4375 142.921875 C 112.28125 142.746094 112.132812 142.566406 111.984375 142.386719 C 111.917969 142.304688 111.851562 142.222656 111.789062 142.144531 C 111.644531 141.960938 111.5 141.773438 111.359375 141.585938 C 111.308594 141.515625 111.257812 141.449219 111.210938 141.382812 C 111.023438 141.125 110.84375 140.867188 110.671875 140.605469 C 110.640625 140.558594 110.609375 140.507812 110.578125 140.460938 C 110.441406 140.242188 110.300781 140.023438 110.171875 139.804688 C 110.117188 139.714844 110.070312 139.628906 110.015625 139.542969 C 109.902344 139.347656 109.792969 139.152344 109.6875 138.953125 C 109.640625 138.867188 109.59375 138.78125 109.550781 138.695312 C 109.414062 138.433594 109.28125 138.167969 109.152344 137.902344 L 109.128906 137.855469 C 108.996094 137.570312 108.871094 137.28125 108.75 136.992188 C 108.714844 136.90625 108.679688 136.820312 108.648438 136.734375 C 108.5625 136.523438 108.480469 136.3125 108.402344 136.097656 C 108.367188 136.003906 108.332031 135.90625 108.300781 135.808594 C 108.21875 135.578125 108.140625 135.34375 108.066406 135.109375 C 108.046875 135.042969 108.023438 134.976562 108.003906 134.910156 C 107.914062 134.609375 107.828125 134.308594 107.75 134.003906 C 107.730469 133.933594 107.714844 133.855469 107.695312 133.78125 C 107.640625 133.546875 107.585938 133.3125 107.535156 133.078125 C 107.515625 132.976562 107.496094 132.875 107.476562 132.777344 C 107.429688 132.550781 107.390625 132.324219 107.355469 132.097656 C 107.339844 132.007812 107.324219 131.917969 107.308594 131.828125 C 107.265625 131.515625 107.222656 131.203125 107.191406 130.890625 C 107.1875 130.855469 107.183594 130.816406 107.179688 130.78125 C 107.152344 130.503906 107.128906 130.222656 107.113281 129.941406 C 107.105469 129.84375 107.101562 129.742188 107.097656 129.644531 C 107.085938 129.417969 107.082031 129.191406 107.078125 128.960938 C 107.074219 128.863281 107.074219 128.761719 107.074219 128.660156 C 107.074219 128.386719 107.078125 128.117188 107.085938 127.84375 C 107.089844 127.796875 107.089844 127.746094 107.089844 127.699219 C 107.105469 127.378906 107.125 127.0625 107.15625 126.742188 C 107.164062 126.652344 107.171875 126.566406 107.183594 126.476562 C 107.207031 126.238281 107.234375 126.003906 107.265625 125.769531 C 107.277344 125.664062 107.292969 125.558594 107.308594 125.457031 C 107.34375 125.214844 107.386719 124.972656 107.429688 124.734375 C 107.445312 124.652344 107.457031 124.566406 107.472656 124.484375 C 107.535156 124.167969 107.605469 123.847656 107.683594 123.53125 C 107.699219 123.46875 107.71875 123.402344 107.734375 123.335938 C 107.800781 123.082031 107.867188 122.828125 107.941406 122.574219 C 107.972656 122.472656 108.003906 122.371094 108.035156 122.265625 C 108.105469 122.039062 108.183594 121.8125 108.261719 121.585938 C 108.292969 121.488281 108.324219 121.394531 108.359375 121.300781 C 108.472656 120.984375 108.59375 120.671875 108.722656 120.359375 C 108.878906 119.976562 109.050781 119.601562 109.230469 119.234375 C 109.285156 119.117188 109.34375 119.003906 109.402344 118.890625 C 109.53125 118.632812 109.664062 118.378906 109.800781 118.132812 C 109.871094 118.007812 109.941406 117.882812 110.011719 117.761719 C 110.15625 117.511719 110.304688 117.269531 110.457031 117.03125 C 110.523438 116.921875 110.585938 116.816406 110.65625 116.710938 C 110.878906 116.371094 111.109375 116.039062 111.347656 115.71875 L 111.371094 115.691406 C 111.601562 115.375 111.847656 115.070312 112.097656 114.769531 C 112.179688 114.671875 112.261719 114.578125 112.34375 114.484375 C 112.527344 114.269531 112.714844 114.0625 112.90625 113.855469 C 113.003906 113.753906 113.097656 113.652344 113.199219 113.550781 C 113.394531 113.347656 113.597656 113.152344 113.800781 112.957031 C 113.890625 112.871094 113.976562 112.785156 114.070312 112.703125 C 114.363281 112.429688 114.667969 112.167969 114.976562 111.914062 L 114.984375 111.90625 C 115.226562 111.707031 115.472656 111.519531 115.722656 111.332031 C 115.796875 111.277344 115.871094 111.222656 115.945312 111.167969 C 116.136719 111.027344 116.332031 110.894531 116.527344 110.761719 C 116.605469 110.707031 116.683594 110.65625 116.761719 110.601562 C 117.019531 110.433594 117.28125 110.265625 117.546875 110.109375 L 117.570312 110.09375 C 117.84375 109.929688 118.121094 109.773438 118.40625 109.621094 C 118.488281 109.574219 118.570312 109.535156 118.652344 109.488281 C 118.867188 109.378906 119.078125 109.273438 119.296875 109.167969 C 119.382812 109.125 119.464844 109.085938 119.554688 109.042969 C 119.847656 108.90625 120.140625 108.777344 120.441406 108.652344 C 123.082031 107.5625 125.855469 107.007812 128.679688 107.007812 C 131.527344 107.007812 134.320312 107.570312 136.980469 108.679688 C 137.292969 108.808594 137.601562 108.949219 137.90625 109.09375 C 137.988281 109.132812 138.070312 109.171875 138.152344 109.214844 C 138.410156 109.339844 138.664062 109.46875 138.910156 109.601562 C 138.960938 109.628906 139.011719 109.65625 139.0625 109.683594 C 139.355469 109.84375 139.640625 110.007812 139.921875 110.183594 C 139.992188 110.222656 140.0625 110.269531 140.132812 110.3125 C 140.359375 110.453125 140.582031 110.601562 140.804688 110.75 C 140.867188 110.796875 140.933594 110.839844 141 110.882812 C 141.269531 111.070312 141.53125 111.265625 141.789062 111.460938 C 141.84375 111.5 141.890625 111.542969 141.941406 111.582031 C 142.15625 111.75 142.367188 111.917969 142.574219 112.097656 C 142.640625 112.152344 142.710938 112.207031 142.773438 112.265625 C 143.023438 112.480469 143.265625 112.695312 143.503906 112.921875 L 143.542969 112.960938 C 143.765625 113.171875 143.984375 113.390625 144.199219 113.613281 C 144.226562 113.644531 144.257812 113.671875 144.289062 113.703125 L 146.976562 116.527344 L 159.457031 129.628906 L 159.507812 129.574219 C 159.773438 129.265625 160.046875 128.964844 160.324219 128.667969 C 160.398438 128.589844 160.476562 128.511719 160.550781 128.433594 C 160.847656 128.121094 161.148438 127.8125 161.457031 127.515625 L 161.511719 127.460938 C 161.804688 127.179688 162.105469 126.898438 162.40625 126.628906 C 162.488281 126.554688 162.570312 126.484375 162.648438 126.414062 C 162.972656 126.128906 163.296875 125.847656 163.625 125.578125 L 163.632812 125.574219 L 163.667969 125.546875 C 163.988281 125.285156 164.3125 125.03125 164.644531 124.78125 C 164.730469 124.71875 164.816406 124.652344 164.902344 124.585938 C 165.246094 124.332031 165.59375 124.082031 165.945312 123.84375 L 165.984375 123.816406 C 166.324219 123.582031 166.671875 123.359375 167.023438 123.136719 C 167.113281 123.078125 167.203125 123.023438 167.292969 122.96875 C 167.660156 122.742188 168.023438 122.523438 168.398438 122.3125 L 168.429688 122.296875 C 168.792969 122.089844 169.160156 121.894531 169.527344 121.707031 C 169.621094 121.65625 169.71875 121.605469 169.8125 121.558594 C 170.195312 121.367188 170.578125 121.179688 170.96875 121.003906 L 171 120.988281 C 171.378906 120.816406 171.761719 120.652344 172.148438 120.492188 C 172.25 120.453125 172.347656 120.410156 172.445312 120.371094 C 172.84375 120.210938 173.242188 120.058594 173.648438 119.914062 L 173.671875 119.902344 C 174.070312 119.761719 174.46875 119.632812 174.871094 119.503906 C 174.976562 119.472656 175.078125 119.441406 175.179688 119.410156 C 175.59375 119.285156 176.003906 119.164062 176.421875 119.054688 L 176.445312 119.050781 C 176.855469 118.941406 177.269531 118.84375 177.683594 118.75 C 177.789062 118.726562 177.898438 118.703125 178.003906 118.679688 C 178.425781 118.589844 178.851562 118.503906 179.28125 118.429688 L 179.296875 118.429688 C 179.71875 118.355469 180.148438 118.292969 180.578125 118.234375 C 180.6875 118.222656 180.792969 118.207031 180.902344 118.195312 C 181.335938 118.140625 181.773438 118.089844 182.210938 118.054688 L 182.21875 118.054688 C 182.65625 118.015625 183.09375 117.988281 183.535156 117.96875 C 183.644531 117.960938 183.753906 117.957031 183.867188 117.953125 C 184.308594 117.9375 184.753906 117.925781 185.199219 117.925781 C 185.628906 117.925781 186.058594 117.9375 186.484375 117.953125 C 186.585938 117.957031 186.691406 117.960938 186.792969 117.964844 C 187.214844 117.988281 187.636719 118.011719 188.058594 118.046875 L 188.140625 118.054688 C 188.539062 118.089844 188.933594 118.132812 189.324219 118.183594 C 189.425781 118.195312 189.527344 118.207031 189.625 118.21875 C 190.039062 118.273438 190.449219 118.335938 190.859375 118.40625 C 190.90625 118.414062 190.953125 118.421875 191 118.429688 C 191.375 118.496094 191.742188 118.570312 192.109375 118.644531 C 192.207031 118.667969 192.300781 118.6875 192.398438 118.707031 C 192.796875 118.792969 193.199219 118.886719 193.59375 118.988281 C 193.65625 119.007812 193.714844 119.023438 193.773438 119.039062 C 194.128906 119.132812 194.476562 119.230469 194.824219 119.335938 C 194.914062 119.359375 195.003906 119.386719 195.09375 119.414062 C 195.484375 119.535156 195.867188 119.660156 196.253906 119.792969 C 196.320312 119.816406 196.390625 119.84375 196.460938 119.867188 C 196.796875 119.984375 197.128906 120.109375 197.457031 120.238281 C 197.542969 120.269531 197.625 120.304688 197.707031 120.335938 C 198.082031 120.484375 198.453125 120.640625 198.824219 120.804688 C 198.898438 120.835938 198.972656 120.871094 199.046875 120.90625 C 199.367188 121.050781 199.6875 121.199219 200.003906 121.351562 C 200.074219 121.386719 200.152344 121.421875 200.222656 121.460938 C 200.585938 121.636719 200.941406 121.824219 201.296875 122.015625 C 201.375 122.054688 201.449219 122.097656 201.527344 122.140625 C 201.835938 122.3125 202.140625 122.484375 202.445312 122.664062 C 202.507812 122.703125 202.574219 122.738281 202.636719 122.777344 C 202.980469 122.984375 203.324219 123.195312 203.660156 123.414062 C 203.738281 123.464844 203.8125 123.515625 203.890625 123.566406 C 204.1875 123.761719 204.484375 123.960938 204.777344 124.167969 C 204.828125 124.207031 204.878906 124.242188 204.929688 124.277344 C 205.257812 124.507812 205.582031 124.75 205.902344 124.992188 C 205.976562 125.054688 206.054688 125.113281 206.128906 125.167969 C 206.417969 125.394531 206.703125 125.625 206.984375 125.859375 C 207.023438 125.890625 207.0625 125.917969 207.097656 125.953125 C 207.410156 126.210938 207.710938 126.476562 208.011719 126.746094 C 208.085938 126.8125 208.15625 126.878906 208.230469 126.941406 C 208.511719 127.199219 208.789062 127.460938 209.0625 127.730469 L 209.128906 127.789062 C 209.417969 128.074219 209.699219 128.367188 209.980469 128.660156 C 210.046875 128.730469 210.117188 128.804688 210.183594 128.875 C 210.460938 129.171875 210.738281 129.472656 211.003906 129.777344 L 211.007812 129.785156 L 217.5 137.246094 L 222.679688 143.195312 L 226.726562 143.195312 C 226.882812 142.855469 227.050781 142.523438 227.222656 142.191406 C 227.257812 142.121094 227.292969 142.054688 227.328125 141.984375 C 227.5 141.664062 227.679688 141.351562 227.863281 141.042969 C 227.898438 140.988281 227.929688 140.9375 227.960938 140.886719 C 228.136719 140.601562 228.316406 140.324219 228.503906 140.046875 C 228.535156 140.003906 228.5625 139.957031 228.597656 139.910156 C 228.800781 139.613281 229.011719 139.324219 229.230469 139.039062 C 229.28125 138.976562 229.328125 138.917969 229.375 138.855469 C 229.601562 138.566406 229.832031 138.285156 230.070312 138.011719 L 230.097656 137.980469 C 230.332031 137.710938 230.574219 137.453125 230.816406 137.199219 C 230.871094 137.144531 230.921875 137.089844 230.976562 137.035156 C 231.222656 136.78125 231.476562 136.535156 231.738281 136.292969 C 231.789062 136.25 231.835938 136.207031 231.882812 136.164062 C 232.128906 135.945312 232.378906 135.730469 232.628906 135.519531 L 232.710938 135.449219 L 232.753906 135.414062 C 232.972656 135.238281 233.195312 135.066406 233.417969 134.894531 C 233.453125 134.871094 233.488281 134.84375 233.523438 134.820312 C 233.714844 134.675781 233.90625 134.539062 234.105469 134.402344 C 234.183594 134.347656 234.265625 134.296875 234.34375 134.242188 C 234.5 134.136719 234.65625 134.03125 234.816406 133.933594 C 234.902344 133.875 234.992188 133.820312 235.082031 133.765625 C 235.238281 133.667969 235.394531 133.574219 235.554688 133.484375 C 235.644531 133.429688 235.730469 133.378906 235.820312 133.328125 C 235.996094 133.230469 236.167969 133.136719 236.34375 133.046875 C 236.421875 133.003906 236.496094 132.964844 236.570312 132.925781 C 236.820312 132.796875 237.074219 132.671875 237.332031 132.554688 C 237.363281 132.539062 237.394531 132.527344 237.421875 132.515625 C 237.652344 132.410156 237.878906 132.308594 238.109375 132.210938 C 238.199219 132.175781 238.285156 132.140625 238.375 132.105469 C 238.550781 132.035156 238.730469 131.96875 238.910156 131.902344 C 239.007812 131.863281 239.109375 131.828125 239.207031 131.792969 C 239.382812 131.730469 239.554688 131.671875 239.730469 131.613281 C 239.832031 131.582031 239.929688 131.550781 240.03125 131.519531 C 240.21875 131.460938 240.410156 131.40625 240.601562 131.355469 C 240.6875 131.328125 240.773438 131.304688 240.859375 131.28125 C 241.136719 131.207031 241.414062 131.136719 241.695312 131.074219 L 241.746094 131.0625 C 242.007812 131.007812 242.273438 130.953125 242.539062 130.90625 C 242.632812 130.890625 242.726562 130.875 242.820312 130.859375 C 243.011719 130.828125 243.207031 130.796875 243.402344 130.769531 C 243.507812 130.753906 243.613281 130.742188 243.722656 130.726562 C 243.90625 130.703125 244.09375 130.683594 244.28125 130.664062 C 244.390625 130.65625 244.496094 130.644531 244.605469 130.636719 C 244.804688 130.617188 245.003906 130.605469 245.203125 130.597656 C 245.296875 130.589844 245.390625 130.582031 245.484375 130.582031 C 245.78125 130.570312 246.074219 130.5625 246.371094 130.5625 C 246.742188 130.5625 247.113281 130.570312 247.480469 130.589844 C 247.570312 130.59375 247.664062 130.605469 247.753906 130.609375 C 248.027344 130.625 248.300781 130.644531 248.574219 130.671875 C 248.695312 130.683594 248.808594 130.703125 248.925781 130.71875 C 249.171875 130.746094 249.414062 130.773438 249.65625 130.808594 C 249.804688 130.832031 249.953125 130.863281 250.101562 130.890625 C 250.304688 130.925781 250.511719 130.957031 250.71875 131 C 250.863281 131.03125 251.003906 131.066406 251.148438 131.101562 C 251.355469 131.148438 251.558594 131.191406 251.761719 131.242188 C 251.910156 131.28125 252.058594 131.328125 252.207031 131.371094 C 252.398438 131.425781 252.59375 131.472656 252.785156 131.535156 C 252.941406 131.582031 253.09375 131.640625 253.25 131.691406 C 253.429688 131.753906 253.609375 131.808594 253.789062 131.875 C 253.945312 131.933594 254.09375 131.996094 254.25 132.058594 C 254.421875 132.125 254.597656 132.191406 254.769531 132.261719 C 254.925781 132.328125 255.074219 132.402344 255.226562 132.46875 C 255.394531 132.546875 255.5625 132.617188 255.726562 132.695312 C 255.878906 132.769531 256.023438 132.851562 256.171875 132.925781 C 256.332031 133.007812 256.496094 133.085938 256.65625 133.175781 C 256.804688 133.253906 256.945312 133.339844 257.089844 133.421875 C 257.246094 133.515625 257.40625 133.601562 257.5625 133.695312 C 257.707031 133.785156 257.84375 133.878906 257.988281 133.96875 C 258.136719 134.066406 258.289062 134.15625 258.4375 134.257812 C 258.578125 134.355469 258.71875 134.457031 258.855469 134.558594 C 259 134.660156 259.144531 134.757812 259.285156 134.863281 C 259.417969 134.964844 259.550781 135.070312 259.683594 135.175781 C 259.824219 135.285156 259.964844 135.390625 260.101562 135.503906 C 260.230469 135.609375 260.351562 135.722656 260.476562 135.832031 C 260.613281 135.949219 260.75 136.0625 260.886719 136.183594 C 261.003906 136.292969 261.121094 136.410156 261.242188 136.523438 C 261.371094 136.648438 261.503906 136.765625 261.628906 136.894531 L 261.632812 136.902344 C 261.902344 137.167969 262.164062 137.445312 262.414062 137.726562 C 262.496094 137.8125 262.570312 137.90625 262.648438 137.992188 C 262.820312 138.191406 262.992188 138.390625 263.15625 138.59375 C 263.1875 138.632812 263.21875 138.667969 263.25 138.707031 L 322.066406 212.371094 C 313.160156 260.871094 278.675781 300.429688 233.117188 316.535156 M 167.121094 189.03125 C 157.289062 189.03125 149.289062 197.03125 149.289062 206.863281 L 149.289062 230.816406 C 149.289062 232.453125 149.742188 234.054688 150.597656 235.453125 L 163.140625 255.847656 C 167.679688 263.234375 175.882812 267.820312 184.550781 267.820312 L 230.835938 267.820312 C 245.253906 267.820312 256.988281 256.085938 256.988281 241.664062 L 256.988281 207.996094 C 256.988281 198.160156 248.988281 190.160156 239.15625 190.160156 C 237.652344 190.160156 236.144531 190.351562 234.683594 190.734375 L 234.640625 190.738281 C 234.597656 190.738281 234.550781 190.71875 234.523438 190.683594 C 231.136719 186.863281 226.273438 184.671875 221.183594 184.671875 C 219.679688 184.671875 218.171875 184.863281 216.707031 185.246094 L 216.667969 185.25 C 216.621094 185.25 216.578125 185.230469 216.546875 185.195312 C 213.84375 182.144531 210.144531 180.097656 206.132812 179.429688 C 206.070312 179.417969 206.019531 179.371094 206.003906 179.308594 C 205.988281 179.246094 206.007812 179.183594 206.058594 179.144531 C 211.867188 174.621094 216.125 168.234375 218.050781 161.164062 C 218.070312 161.09375 218.132812 161.046875 218.207031 161.046875 L 226.726562 161.046875 C 226.789062 161.046875 226.84375 161.082031 226.871094 161.140625 C 230.359375 168.757812 238.011719 173.679688 246.371094 173.679688 C 258.195312 173.679688 267.816406 164.042969 267.816406 152.199219 C 267.816406 140.359375 258.195312 130.722656 246.371094 130.722656 C 238.011719 130.722656 230.359375 135.644531 226.871094 143.261719 C 226.84375 143.320312 226.789062 143.359375 226.726562 143.359375 L 218.210938 143.359375 C 218.136719 143.359375 218.074219 143.308594 218.054688 143.238281 C 216.117188 136.148438 211.800781 129.742188 205.898438 125.195312 C 199.953125 120.609375 192.601562 118.085938 185.199219 118.085938 C 174.578125 118.085938 164.777344 122.898438 158.304688 131.292969 C 158.269531 131.332031 158.222656 131.355469 158.175781 131.355469 L 158.113281 131.34375 L 150.207031 128.046875 C 150.148438 128.023438 150.109375 127.96875 150.109375 127.90625 C 149.8125 119.53125 144.632812 112.039062 136.914062 108.828125 C 134.28125 107.726562 131.511719 107.167969 128.679688 107.167969 C 125.875 107.167969 123.125 107.71875 120.503906 108.800781 C 115.199219 110.992188 111.066406 115.117188 108.871094 120.421875 C 104.339844 131.351562 109.527344 143.941406 120.441406 148.488281 C 123.082031 149.589844 125.851562 150.144531 128.675781 150.144531 C 131.480469 150.144531 134.230469 149.597656 136.851562 148.515625 C 139.226562 147.535156 141.378906 146.15625 143.257812 144.414062 C 143.289062 144.386719 143.328125 144.371094 143.367188 144.371094 L 143.429688 144.382812 L 151.332031 147.675781 C 151.398438 147.703125 151.4375 147.773438 151.429688 147.847656 C 151.242188 149.285156 151.152344 150.75 151.152344 152.199219 C 151.152344 152.832031 151.167969 153.460938 151.203125 154.070312 C 151.203125 154.144531 151.160156 154.207031 151.089844 154.230469 L 140.613281 157.722656 L 140.5625 157.730469 C 140.53125 157.730469 140.5 157.722656 140.472656 157.703125 C 139.332031 156.945312 138.109375 156.292969 136.839844 155.765625 C 134.207031 154.675781 131.441406 154.117188 128.625 154.117188 C 125.8125 154.117188 123.054688 154.667969 120.429688 155.757812 C 109.507812 160.277344 104.289062 172.855469 108.792969 183.796875 C 110.980469 189.109375 115.101562 193.246094 120.398438 195.445312 C 123.03125 196.539062 125.796875 197.097656 128.621094 197.097656 C 131.433594 197.097656 134.191406 196.546875 136.808594 195.460938 C 145.5 191.863281 150.90625 182.789062 149.945312 173.390625 C 149.9375 173.3125 149.984375 173.242188 150.054688 173.21875 L 156.675781 171.015625 L 156.726562 171.007812 C 156.78125 171.007812 156.832031 171.03125 156.863281 171.078125 C 159.574219 175.140625 163.191406 178.648438 167.324219 181.21875 C 167.371094 181.25 167.398438 181.300781 167.398438 181.355469 L 167.398438 188.871094 C 167.398438 188.960938 167.324219 189.03125 167.238281 189.03125 L 167.121094 189.03125 " fill-opacity="1" fill-rule="nonzero"/></g></g><path fill="#ffffff" d="M 246.371094 160.386719 C 250.867188 160.386719 254.523438 156.714844 254.523438 152.199219 C 254.523438 147.6875 250.867188 144.015625 246.371094 144.015625 C 241.875 144.015625 238.214844 147.6875 238.214844 152.199219 C 238.214844 156.714844 241.875 160.386719 246.371094 160.386719 " fill-opacity="1" fill-rule="nonzero"/><path fill="#ffffff" d="M 131.804688 121.097656 C 130.796875 120.675781 129.734375 120.464844 128.679688 120.464844 C 127.628906 120.464844 126.578125 120.671875 125.574219 121.085938 C 123.558594 121.917969 121.988281 123.488281 121.148438 125.511719 C 119.421875 129.683594 121.394531 134.484375 125.550781 136.21875 C 127.558594 137.054688 129.769531 137.058594 131.777344 136.226562 C 133.796875 135.398438 135.367188 133.824219 136.207031 131.800781 C 137.933594 127.632812 135.960938 122.828125 131.804688 121.097656 " fill-opacity="1" fill-rule="nonzero"/><path fill="#ffffff" d="M 198.664062 178.667969 L 198.664062 184.371094 C 200.085938 183.859375 201.613281 183.582031 203.207031 183.582031 C 208.28125 183.582031 212.710938 186.410156 214.996094 190.578125 C 216.847656 189.613281 218.953125 189.066406 221.179688 189.066406 C 226.257812 189.066406 230.6875 191.898438 232.972656 196.066406 C 234.824219 195.101562 236.925781 194.554688 239.15625 194.554688 C 246.5625 194.554688 252.589844 200.585938 252.589844 207.996094 L 252.589844 241.660156 C 252.589844 253.664062 242.832031 263.425781 230.835938 263.425781 L 184.550781 263.425781 C 177.398438 263.425781 170.632812 259.640625 166.886719 253.546875 L 154.339844 233.148438 C 153.910156 232.449219 153.683594 231.640625 153.683594 230.816406 L 153.683594 206.867188 C 153.683594 199.453125 159.710938 193.429688 167.121094 193.429688 L 171.792969 193.429688 L 171.792969 178.703125 C 166.207031 175.851562 161.636719 171.277344 158.785156 165.683594 L 144.832031 170.328125 C 147.5625 178.722656 143.410156 187.972656 135.132812 191.398438 C 133.03125 192.265625 130.828125 192.699219 128.621094 192.699219 C 126.40625 192.699219 124.195312 192.265625 122.085938 191.386719 C 117.875 189.636719 114.597656 186.347656 112.859375 182.125 C 109.273438 173.417969 113.425781 163.414062 122.113281 159.816406 C 126.316406 158.078125 130.949219 158.082031 135.15625 159.828125 C 136.847656 160.53125 138.386719 161.484375 139.734375 162.648438 L 155.972656 157.238281 C 155.691406 155.601562 155.546875 153.917969 155.546875 152.199219 C 155.546875 149.730469 155.851562 147.332031 156.417969 145.035156 L 142.175781 139.101562 C 140.375 141.449219 137.980469 143.292969 135.175781 144.453125 C 133.078125 145.316406 130.878906 145.75 128.679688 145.75 C 126.457031 145.75 124.242188 145.308594 122.128906 144.429688 C 113.453125 140.816406 109.324219 130.800781 112.929688 122.105469 C 114.679688 117.882812 117.964844 114.601562 122.183594 112.863281 C 126.390625 111.125 131.023438 111.132812 135.226562 112.882812 C 142.488281 115.90625 146.558594 123.414062 145.582031 130.882812 L 159.835938 136.820312 C 165.039062 128.230469 174.460938 122.480469 185.199219 122.480469 C 200.042969 122.480469 212.375 133.46875 214.523438 147.75 L 229.90625 147.75 C 231.867188 140.484375 238.503906 135.117188 246.371094 135.117188 C 255.773438 135.117188 263.421875 142.78125 263.421875 152.199219 C 263.421875 161.621094 255.773438 169.285156 246.371094 169.285156 C 238.503906 169.285156 231.867188 163.917969 229.90625 156.648438 L 214.519531 156.648438 C 213.070312 166.269531 207.007812 174.390625 198.664062 178.667969 Z M 218.207031 161.207031 L 226.726562 161.207031 C 230.199219 168.792969 237.835938 173.839844 246.371094 173.839844 C 258.285156 173.839844 267.976562 164.132812 267.976562 152.199219 C 267.976562 140.269531 258.285156 130.5625 246.371094 130.5625 C 237.839844 130.5625 230.199219 135.609375 226.726562 143.195312 L 218.210938 143.195312 C 214.207031 128.542969 200.652344 117.925781 185.199219 117.925781 C 174.476562 117.925781 164.632812 122.820312 158.175781 131.195312 L 150.269531 127.898438 C 149.972656 119.5625 144.855469 111.957031 136.980469 108.679688 C 134.320312 107.570312 131.527344 107.007812 128.679688 107.007812 C 125.855469 107.007812 123.082031 107.5625 120.441406 108.652344 C 115.097656 110.859375 110.9375 115.015625 108.722656 120.359375 C 104.15625 131.371094 109.382812 144.058594 120.378906 148.636719 C 123.039062 149.746094 125.832031 150.308594 128.675781 150.308594 C 131.503906 150.308594 134.273438 149.753906 136.914062 148.664062 C 139.304688 147.675781 141.492188 146.269531 143.367188 144.53125 L 151.269531 147.824219 C 151.082031 149.273438 150.988281 150.734375 150.988281 152.199219 C 150.988281 152.828125 151.007812 153.453125 151.039062 154.078125 L 140.5625 157.570312 C 139.410156 156.804688 138.1875 156.152344 136.90625 155.621094 C 134.25 154.515625 131.464844 153.957031 128.625 153.957031 C 125.792969 153.957031 123.015625 154.515625 120.367188 155.609375 C 109.367188 160.160156 104.105469 172.835938 108.644531 183.859375 C 110.847656 189.210938 115.003906 193.378906 120.335938 195.59375 C 122.988281 196.695312 125.773438 197.257812 128.621094 197.257812 C 131.457031 197.257812 134.230469 196.703125 136.871094 195.609375 C 145.808594 191.914062 151.054688 182.6875 150.105469 173.371094 L 156.726562 171.167969 C 159.460938 175.261719 163.066406 178.761719 167.238281 181.355469 L 167.238281 188.871094 L 167.121094 188.871094 C 157.199219 188.871094 149.128906 196.941406 149.128906 206.863281 L 149.128906 230.816406 C 149.128906 232.480469 149.589844 234.113281 150.460938 235.539062 L 163.003906 255.929688 C 167.570312 263.363281 175.828125 267.984375 184.550781 267.984375 L 230.835938 267.984375 C 245.34375 267.984375 257.148438 256.175781 257.148438 241.664062 L 257.148438 207.996094 C 257.148438 198.074219 249.078125 190 239.15625 190 C 237.632812 190 236.113281 190.195312 234.640625 190.578125 C 231.261719 186.765625 226.386719 184.511719 221.183594 184.511719 C 219.660156 184.511719 218.140625 184.707031 216.667969 185.089844 C 213.9375 182.011719 210.230469 179.949219 206.160156 179.269531 C 212 174.71875 216.253906 168.367188 218.207031 161.207031 " fill-opacity="1" fill-rule="nonzero"/><path fill="#ffffff" d="M 185.199219 131.378906 C 173.753906 131.378906 164.441406 140.71875 164.441406 152.199219 C 164.441406 158.5625 167.300781 164.257812 171.792969 168.082031 L 171.792969 163.269531 C 171.796875 155.859375 177.824219 149.828125 185.230469 149.828125 C 192.640625 149.828125 198.664062 155.855469 198.664062 163.261719 L 198.664062 168.027344 C 203.125 164.207031 205.957031 158.53125 205.957031 152.199219 C 205.957031 140.71875 196.648438 131.378906 185.199219 131.378906 " fill-opacity="1" fill-rule="nonzero"/><path fill="#ffffff" d="M 131.742188 168.042969 C 130.734375 167.625 129.679688 167.417969 128.621094 167.417969 C 127.570312 167.417969 126.515625 167.625 125.511719 168.039062 C 121.351562 169.761719 119.367188 174.558594 121.085938 178.738281 C 121.917969 180.757812 123.488281 182.332031 125.5 183.171875 C 127.507812 184.007812 129.722656 184.007812 131.730469 183.175781 C 135.890625 181.457031 137.875 176.65625 136.15625 172.480469 C 135.324219 170.457031 133.753906 168.882812 131.742188 168.042969 " fill-opacity="1" fill-rule="nonzero"/><path fill="#ffffff" d="M 198.664062 206.429688 C 198.664062 208.886719 196.675781 210.878906 194.21875 210.878906 C 191.757812 210.878906 189.769531 208.886719 189.769531 206.429688 L 189.765625 163.261719 C 189.765625 160.761719 187.734375 158.726562 185.234375 158.726562 C 182.726562 158.726562 180.691406 160.765625 180.691406 163.269531 L 180.691406 197.71875 C 180.691406 197.769531 180.695312 197.820312 180.695312 197.875 C 180.695312 205.457031 180.695312 210.011719 180.695312 212.667969 L 180.695312 215.933594 C 180.695312 215.964844 180.695312 215.996094 180.691406 216.03125 L 180.691406 216.039062 C 180.632812 218.957031 178.371094 220.535156 176.246094 220.535156 C 174.128906 220.535156 171.882812 218.960938 171.796875 216.042969 L 171.796875 215.992188 C 171.792969 215.957031 171.792969 215.917969 171.792969 215.882812 L 171.792969 202.324219 L 167.117188 202.324219 C 164.617188 202.324219 162.582031 204.363281 162.582031 206.867188 L 162.578125 229.558594 L 174.464844 248.886719 C 176.605469 252.367188 180.46875 254.527344 184.546875 254.527344 L 230.835938 254.527344 C 237.925781 254.527344 243.695312 248.757812 243.695312 241.660156 L 243.695312 207.996094 C 243.695312 205.492188 241.65625 203.453125 239.15625 203.453125 C 236.652344 203.453125 234.617188 205.492188 234.617188 207.996094 L 234.617188 220.148438 C 234.617188 222.605469 232.625 224.597656 230.167969 224.597656 C 227.710938 224.597656 225.71875 222.605469 225.71875 220.148438 L 225.71875 202.507812 C 225.71875 200.003906 223.683594 197.964844 221.179688 197.964844 C 218.675781 197.964844 216.640625 200.003906 216.640625 202.507812 L 216.640625 211.917969 C 216.640625 214.375 214.648438 216.363281 212.191406 216.363281 C 209.734375 216.363281 207.742188 214.375 207.742188 211.917969 L 207.742188 197.019531 C 207.742188 194.515625 205.707031 192.476562 203.207031 192.476562 C 200.703125 192.476562 198.664062 194.515625 198.664062 197.019531 L 198.664062 206.429688 " fill-opacity="1" fill-rule="nonzero"/></svg>